<svg xmlns="http://www.w3.org/2000/svg" xmlns:xlink="http://www.w3.org/1999/xlink" xmlns:svgjs="http://svgjs.dev/svgjs" version="1.1" opacity="1" viewBox="0 -20 393.92 550.67"><path d="M110.54879597184572 450.9146756902782C70.05177016414711 423.21993793799965 40.920039766604816 405.84542621924965 43.14084461686525 365.4790372625439C45.36164946712569 325.11264830583815 79.45753188289711 231.4469327703564 123.87362507340822 208.7163419500439C168.28971826391933 185.9857511297314 283.77156157650074 209.36951984717933 309.63740375993166 229.0954923406689C335.5032459433627 248.82146483415846 269.9241876140984 297.67917662615065 279.06867817399416 327.0721769109814C288.2131687338899 356.46517719581215 363.3286269044629 371.3576129054475 364.50434711930666 405.4534940496532C365.6800673341504 439.549375193859 328.4489246543002 524.0706001694452 286.12299946305666 531.647463776216C243.79707427181313 539.2243273829868 151.04582177954433 478.609413442557 110.54879597184572 450.9146756902782C70.05177016414711 423.21993793799965 40.920039766604816 405.84542621924965 43.14084461686525 365.4790372625439 " fill="url(&quot;#SvgjsLinearGradient1003&quot;)" transform="matrix(0.992518734375,0,0,0.992518734375,1.790373051093809,2.3587451293570894)" stroke-width="0" stroke="hsl(0, 0%, 80%)" fill-opacity="1"/><defs><pattern id="ssshape-pattern3" width="300px" height="300px" viewBox="0 0 40 40" patternUnits="userSpaceOnUse">
  <rect width="50%" height="50%" fill="none"/>
  <path d="M11 20L20 0L20 40zM31 20L40 0L40 40zM0-20L9 0L0 20zM0 20L9 40L0 60zM20-20L29 0L20 20zM20 20L29 40L20 60z" fill="hsl(340, 45%, 25%)"/>
</pattern><radialGradient id="SvgjsRadialGradient1002"><stop stop-color="hsl(184, 74%, 44%)" offset="0"/><stop stop-color="hsl(332, 87%, 70%)" offset="1"/></radialGradient><linearGradient id="SvgjsLinearGradient1003" gradientTransform="rotate(0, 0.5, 0.5)"><stop stop-color="#c21532" offset="0"/><stop stop-color="#f7f9fa" offset="1"/></linearGradient></defs><path d="M65.53466224747092 371.9425216408154C25.037636439772314 344.24778388853673 -4.094093957769985 326.87327216978673 -1.8732891075095495 286.50688321308104C0.34751574275088615 246.14049425637523 34.443398158522314 152.4747787208935 78.85949134903342 129.744187900581C123.27558453954452 107.01359708026851 238.75742785212594 130.39736579771642 264.62327003555686 150.123338291206C290.48911221898777 169.8493107846956 224.91005388972354 218.70702257668782 234.05454444961936 248.10002286151848C243.19903500951511 277.49302314634923 318.3144931800881 292.3854588559846 319.49021339493186 326.4813400001904C320.6659336097756 360.5772211443961 283.43479092992527 445.09844611998204 241.10886573868186 452.6753097267529C198.7829405474384 460.2521733335237 106.03168805516952 399.637259393094 65.53466224747092 371.9425216408154C25.037636439772314 344.24778388853673 -4.094093957769985 326.87327216978673 -1.8732891075095495 286.50688321308104 " fill-opacity="0.4" fill="hsl(0, 0%, 90%)" opacity="1" stroke-opacity="1" stroke-width="0" stroke="hsl(0, 0%, 80%)" transform="matrix(0.9925187343750008,-7.216449660063518e-16,7.216449660063518e-16,0.9925187343750008,76.79037305109318,77.35874512935709)"/></svg>