<svg xmlns="http://www.w3.org/2000/svg" version="1.1" xmlns:xlink="http://www.w3.org/1999/xlink" xmlns:svgjs="http://svgjs.dev/svgjs" viewBox="0 0 600 600" opacity="1"><path d="M533.2901285197179 190.3105249430339C529.7629678751866 160.78688399251305 469.93186995445103 119.37540531412765 416.5019205119054 111.9291772867839C363.0719710693598 104.48294925944015 244.06296838381297 117.80777836100265 212.71043186444444 145.6331567789714C181.35789534507592 173.45853519694015 244.06296965537865 235.51044051106777 228.38670139569444 278.8814477945964C212.71043313601024 322.252455078125 125.70714359540148 374.6373020833334 118.65282230633898 405.8592004801433C111.59850101727648 437.08109887695315 134.59035918174587 446.3562301025391 186.06077366131944 466.2128381754558C237.53118814089305 486.06944624837246 361.50434920249785 532.9676192626953 427.4753091837804 524.9988489176433C493.446269165063 517.030078572591 580.1882710164626 457.72152042643233 581.8865335490148 418.4002161051433C583.5847960815669 379.0789117838542 445.76428521730907 327.08597151692715 437.6648843790929 289.0710229899089C429.5654835408767 251.05607446289065 536.8172891642491 219.8341658935547 533.2901285197179 190.3105249430339C529.7629678751866 160.78688399251305 469.93186995445103 119.37540531412765 416.5019205119054 111.9291772867839 " fill="url(&quot;#ssshape-pattern1&quot;)" stroke-width="5" stroke="hsl(10, 75%, 40%)" stroke-opacity="0.87" fill-opacity="0.87"></path><defs><pattern id="ssshape-pattern1" width="70" height="70" viewBox="0 0 40 40" patternUnits="userSpaceOnUse">
  <rect width="100%" height="100%" fill="none"></rect>
  <circle cx="20" cy="20" r="10" fill="hsl(350, 93%, 35%)" fill-opacity="0.5"></circle>
  <circle cx="26" cy="20" r="9" fill="hsl(350, 93%, 35%)"></circle>
  <circle cx="-14" cy="20" r="9" fill="hsl(350, 93%, 35%)"></circle>
</pattern></defs></svg>